<svg width="1166" height="565" fill="none" xmlns="http://www.w3.org/2000/svg"><g opacity=".32"><path fill-rule="evenodd" clip-rule="evenodd" d="M1105.66 109.24c-2.26-2.28-5.62-3.772-8.8-2.934a1.655 1.655 0 00-1.18 2.015c.23.88 1.14 1.407 2.02 1.175 1.67-.441 3.87.308 5.62 2.067 1.71 1.726 2.63 4.092 2.1 6.362a1.653 1.653 0 003.22.742c.84-3.643-.69-7.114-2.98-9.427z" fill="#4AA8FF"/><path fill-rule="evenodd" clip-rule="evenodd" d="M91.55 252.668a2.345 2.345 0 00-1.337 3.035c2.281 5.88 4.171 10.007 5.853 12.723.841 1.358 1.693 2.468 2.597 3.278.916.821 1.997 1.43 3.253 1.548 2.492.234 4.344-1.551 5.542-2.891.678-.758 1.365-1.637 2.045-2.516l.243-.314c.618-.799 1.247-1.614 1.929-2.439 1.532-1.853 2.548-2.523 3.081-2.7a.785.785 0 01.211-.046c.029-.002.042.002.05.004.01.003.125.035.337.255.482.502 1.07 1.554 1.678 3.378.588 1.764 1.117 3.997 1.628 6.62.55 2.827 1.503 5.106 3.118 6.453 1.841 1.535 4 1.453 5.792.671 1.677-.733 3.206-2.118 4.486-3.631 1.309-1.548 2.504-3.405 3.468-5.309.785-1.549 1.56-2.365 2.142-2.73.494-.309.844-.307 1.2-.168.467.183 1.199.722 2.021 2.024.808 1.278 1.601 3.134 2.254 5.637a2.347 2.347 0 004.539-1.185c-.735-2.816-1.688-5.156-2.827-6.959-1.126-1.78-2.544-3.207-4.278-3.885-1.844-.722-3.744-.474-5.397.56-1.566.979-2.835 2.605-3.839 4.587-.825 1.628-1.825 3.169-2.865 4.399-1.07 1.266-2.047 2.04-2.781 2.361-.618.269-.777.137-.909.027l-.002-.002c-.357-.298-1.033-1.256-1.518-3.747-.524-2.694-1.098-5.158-1.782-7.208-.664-1.989-1.518-3.867-2.748-5.145-.645-.671-1.454-1.24-2.449-1.52-1.012-.284-2.037-.216-3.009.107-1.825.607-3.541 2.136-5.216 4.163a96.743 96.743 0 00-2.027 2.562l-.24.309c-.69.893-1.281 1.644-1.831 2.26-1.138 1.272-1.582 1.341-1.611 1.347-.044-.011-.224-.072-.558-.371-.439-.393-1.018-1.089-1.739-2.254-1.443-2.331-3.207-6.122-5.468-11.95a2.345 2.345 0 00-3.035-1.338zm10.811 15.915l-.005-.001a.018.018 0 00.005.001z" fill="#FF007E"/><path fill-rule="evenodd" clip-rule="evenodd" d="M758.854 373.083a1.1 1.1 0 011.407.663c.612 1.704.99 2.981 1.143 3.924.076.472.106.916.056 1.318-.052.408-.196.839-.528 1.187-.656.687-1.601.608-2.103.544a13.34 13.34 0 01-1.056-.187 25.854 25.854 0 00-.861-.162 3.781 3.781 0 00-.703-.063l-.04.002a3.6 3.6 0 00.219.672c.193.466.488 1.029.866 1.686.427.741.709 1.52.589 2.262-.142.877-.775 1.37-1.42 1.572-.59.184-1.255.163-1.844.071a8.4 8.4 0 01-1.842-.522c-.405-.166-.642-.175-.738-.163-.018.064-.045.222 0 .519.057.372.216.878.531 1.515a1.1 1.1 0 11-1.97.976c-.383-.773-.634-1.5-.735-2.159-.099-.647-.066-1.324.239-1.906.331-.631.91-1.01 1.584-1.116.627-.099 1.289.04 1.919.297.457.186.93.321 1.348.386.334.052.577.05.731.028-.033-.127-.112-.341-.297-.662-.396-.686-.745-1.345-.992-1.942-.236-.569-.435-1.208-.404-1.813.016-.323.1-.677.314-1.002.218-.332.524-.56.863-.701.623-.259 1.38-.233 2.143-.107.333.056.652.12.933.176l.109.022c.319.064.573.112.79.14.071.009.131.014.181.017a3.661 3.661 0 00-.053-.533c-.119-.734-.438-1.853-1.042-3.532a1.1 1.1 0 01.663-1.407z" fill="#E337FF"/><path fill-rule="evenodd" clip-rule="evenodd" d="M16.006 167.058c-2.864-1.251-5.054-4.254-4.014-7.526.766-2.408 3.09-3.965 5.425-4.265 2.838-.364 5.235 1.13 5.746 3.496.505 2.333-1.264 4.685-3.532 5.051a4.344 4.344 0 01-1.322.014c-.42-.061-.94-.199-1.313-.591-.466-.49-.466-1.094-.33-1.523.118-.374.35-.686.535-.902.184-.214.392-.415.586-.589.073-.309.28-.584.589-.734.294-.143.545-.262.71-.319.035-.012.142-.05.273-.067.052-.006.228-.028.442.03a1.107 1.107 0 01.688 1.584 1.16 1.16 0 01-.137.205c-.057.07-.114.123-.142.148a7.117 7.117 0 01-.417.342l-.18.145c.941-.342 1.598-1.418 1.401-2.33-.22-1.017-1.36-2.03-3.317-1.779-1.665.214-3.153 1.316-3.609 2.75-.583 1.836.575 3.873 2.798 4.845 2.124.928 5.014.72 7.349-1.981 2.739-3.168 2.041-7.29-.677-9.773-2.657-2.427-7.402-3.341-12.812.594a1.1 1.1 0 01-1.293-1.778c6.134-4.463 12.055-3.666 15.588-.44 3.47 3.169 4.484 8.64.857 12.836-2.995 3.464-6.93 3.852-9.892 2.557zm2.442-5.445l.003.001-.003-.001z" fill="#FF007E"/><path d="M262.933 476.354a3.162 3.162 0 106.325 0 3.162 3.162 0 00-6.325 0z" fill="#4AA8FF"/><path fill-rule="evenodd" clip-rule="evenodd" d="M266.095 466.631c5.371 0 9.724 4.354 9.724 9.725 0 5.37-4.353 9.724-9.724 9.724s-9.725-4.354-9.725-9.724c0-5.371 4.354-9.725 9.725-9.725zm11.923 9.725c0-6.586-5.338-11.924-11.923-11.924s-11.924 5.338-11.924 11.924c0 6.585 5.339 11.923 11.924 11.923 6.585 0 11.923-5.338 11.923-11.923z" fill="#4AA8FF"/><path d="M298.113 338.807a3.162 3.162 0 106.323 0 3.162 3.162 0 00-6.323 0z" fill="#FF007E"/><path fill-rule="evenodd" clip-rule="evenodd" d="M301.275 329.633a9.174 9.174 0 019.174 9.174 9.174 9.174 0 11-18.349 0 9.174 9.174 0 019.175-9.174zm12.473 9.174c0-6.889-5.584-12.473-12.473-12.473-6.889 0-12.474 5.584-12.474 12.473 0 6.889 5.585 12.474 12.474 12.474s12.473-5.585 12.473-12.474z" fill="#FF007E"/><path fill-rule="evenodd" clip-rule="evenodd" d="M306.806 230.121l1.983-4.6c1.988-4.612-2.09-9.534-6.991-8.438l-4.889 1.093-3.763-3.307c-3.772-3.317-9.713-.959-10.185 4.041l-.471 4.987-4.309 2.556c-4.319 2.563-3.913 8.942.697 10.937l4.597 1.989 1.1 4.887c1.102 4.9 7.295 6.485 10.616 2.717l3.312-3.758 4.988.465c5.001.466 8.422-4.934 5.865-9.257l-2.55-4.312zm-.979 6.4c.852 1.441-.288 3.241-1.955 3.086l-6.027-.562a2.05 2.05 0 00-1.728.686l-4.002 4.541c-1.107 1.256-3.172.727-3.539-.906l-1.329-5.905a2.048 2.048 0 00-1.186-1.432l-5.555-2.403c-1.537-.665-1.672-2.791-.232-3.646l5.205-3.088a2.05 2.05 0 00.996-1.571l.569-6.025c.157-1.667 2.137-2.453 3.395-1.348l4.545 3.997a2.051 2.051 0 001.802.461l5.907-1.321c1.633-.365 2.993 1.275 2.33 2.813l-2.396 5.558a2.049 2.049 0 00.118 1.856l3.082 5.209zM43.35 447.475a1.173 1.173 0 00-.86-.625l-9.242-1.47a1.173 1.173 0 01-.645-1.987l6.612-6.621c.265-.265.387-.641.329-1.011l-1.458-9.243a1.173 1.173 0 011.69-1.228l8.34 4.243c.334.17.73.17 1.063 0l8.34-4.243a1.173 1.173 0 011.69 1.228l-1.457 9.243c-.059.37.064.746.328 1.011l6.613 6.621c.676.678.3 1.837-.646 1.987l-9.24 1.47c-.371.059-.69.291-.861.625l-4.254 8.335a1.173 1.173 0 01-2.089 0l-4.253-8.335zm13.96 3.726l-3.44 6.741c-2.176 4.264-8.269 4.264-10.445 0l-3.44-6.741-7.474-1.188c-4.728-.752-6.61-6.547-3.227-9.935l5.347-5.354-1.179-7.475c-.746-4.729 4.184-8.311 8.45-6.14l6.746 3.431 6.745-3.431c4.267-2.171 9.196 1.411 8.45 6.14l-1.179 7.475 5.348 5.354c3.383 3.388 1.5 9.183-3.228 9.935l-7.474 1.188z" fill="#4AA8FF"/><path fill-rule="evenodd" clip-rule="evenodd" d="M346.04 108.13l1.132-.18c2.348-.374 3.283-3.251 1.603-4.933l-.81-.812.178-1.132c.371-2.348-2.077-4.127-4.196-3.049l-1.022.52-1.022-.52c-2.119-1.078-4.567.7-4.196 3.049l.178 1.132-.81.812c-1.68 1.682-.745 4.559 1.603 4.933l1.132.18.521 1.021c1.081 2.118 4.107 2.118 5.187 0l.522-1.021zm-2.251.139a.97.97 0 01-1.729 0l-.745-1.461a.971.971 0 00-.712-.518l-1.62-.257a.97.97 0 01-.534-1.645l1.159-1.16a.973.973 0 00.272-.837l-.256-1.62a.97.97 0 011.399-1.017l1.462.744a.968.968 0 00.88 0l1.462-.744a.97.97 0 011.399 1.017l-.256 1.62a.973.973 0 00.272.837l1.159 1.16a.971.971 0 01-.534 1.645l-1.62.257a.971.971 0 00-.712.518l-.746 1.461z" fill="#E337FF"/><path opacity=".96" fill-rule="evenodd" clip-rule="evenodd" d="M193.846 382.227a1.173 1.173 0 011.149 1.197c-.035 1.678-.163 2.898-.426 3.725-.133.415-.334.845-.676 1.173a1.79 1.79 0 01-1.357.507c-.43-.023-.805-.187-1.077-.334a7.243 7.243 0 01-.811-.527 33.294 33.294 0 01-.405-.301c-.37-.276-.71-.531-1.086-.751a3.991 3.991 0 00-.418-.218 4.111 4.111 0 00-.008.437c.013.458.08 1.035.189 1.727.126.794.118 1.606-.259 2.255-.45.775-1.225 1.007-1.893.966-.605-.038-1.197-.289-1.687-.569a7.947 7.947 0 01-1.45-1.085 1.172 1.172 0 111.603-1.712c.327.306.683.573 1.011.761.16.091.295.153.402.194a3.22 3.22 0 00-.043-.443c-.116-.728-.201-1.422-.218-2.03-.015-.577.023-1.224.265-1.77a2 2 0 01.655-.826 1.903 1.903 0 011.065-.35c.67-.019 1.348.273 1.973.64.501.294.991.661 1.381.953.11.082.212.159.305.226.131.096.243.175.341.238.137-.509.247-1.415.279-2.935a1.173 1.173 0 011.196-1.148z" fill="#4AA8FF"/><path opacity=".96" fill-rule="evenodd" clip-rule="evenodd" d="M457.68 524.295a1.173 1.173 0 01.624-1.536c1.547-.654 2.713-1.035 3.574-1.132.434-.048.908-.04 1.348.138.496.201.84.575 1.016 1.032.154.402.158.811.135 1.12a7.263 7.263 0 01-.151.955c-.036.171-.073.334-.109.493-.101.451-.195.865-.243 1.298a4.253 4.253 0 00-.028.47c.106-.037.239-.092.402-.17.413-.199.913-.495 1.5-.878.674-.439 1.418-.763 2.164-.684.892.095 1.42.708 1.654 1.334.213.568.225 1.212.169 1.773a7.946 7.946 0 01-.398 1.766 1.173 1.173 0 01-2.217-.765c.146-.423.244-.856.281-1.233.019-.183.02-.331.013-.446a3.364 3.364 0 00-.386.22c-.617.402-1.216.763-1.764 1.027-.521.25-1.127.479-1.725.481-.32.001-.68-.063-1.02-.261a1.904 1.904 0 01-.755-.83c-.29-.604-.3-1.342-.221-2.062.064-.577.199-1.174.307-1.649l.082-.372c.034-.158.06-.293.078-.408-.521.083-1.393.352-2.793.943a1.173 1.173 0 01-1.537-.624z" fill="#E337FF"/><path fill-rule="evenodd" clip-rule="evenodd" d="M961.824 474.947c2.261-2.28 5.617-3.772 8.802-2.934a1.65 1.65 0 01-.839 3.19c-1.674-.441-3.877.308-5.62 2.067-1.711 1.726-2.631 4.092-2.107 6.362a1.65 1.65 0 01-3.214.742c-.841-3.643.686-7.114 2.978-9.427z" fill="#4AA8FF"/><path fill-rule="evenodd" clip-rule="evenodd" d="M935.578 559.611c-2.261-2.281-5.617-3.773-8.802-2.935a1.65 1.65 0 00.839 3.19c1.674-.44 3.877.309 5.62 2.067 1.711 1.727 2.631 4.092 2.107 6.362a1.649 1.649 0 103.214.742c.841-3.643-.686-7.114-2.978-9.426zM932.735 131.203a2.345 2.345 0 013.132 1.093c2.09 4.331 3.424 7.564 4.076 9.963.326 1.2.515 2.309.495 3.307-.021 1.015-.263 2.062-.945 2.945-1.351 1.751-3.586 1.829-4.943 1.8-.797-.017-1.662-.093-2.503-.171l-.301-.028c-.766-.071-1.537-.143-2.341-.192-1.594-.096-2.379.07-2.7.198.031.409.267 1.184.938 2.42.659 1.212 1.611 2.644 2.801 4.283 1.311 1.808 2.177 3.654 2.077 5.448-.117 2.087-1.466 3.403-2.973 4.055-1.391.601-3.054.731-4.6.655-1.592-.078-3.289-.387-4.885-.849-1.214-.352-1.96-.322-2.331-.223-.272.073-.305.153-.342.247-.081.203-.182.759.098 1.827.273 1.042.865 2.394 1.898 4.025a2.346 2.346 0 01-3.964 2.51c-1.205-1.905-2.042-3.704-2.472-5.346-.424-1.617-.502-3.28.081-4.748.627-1.578 1.9-2.623 3.491-3.047 1.493-.398 3.167-.238 4.847.25 1.3.376 2.634.611 3.809.669 1.221.06 2.061-.083 2.509-.276.068-.03.116-.055.149-.076-.018-.249-.19-.988-1.19-2.366-1.232-1.699-2.321-3.321-3.124-4.798-.773-1.421-1.424-2.962-1.503-4.44-.042-.781.071-1.632.488-2.439.426-.823 1.083-1.435 1.852-1.854 1.429-.778 3.303-.929 5.328-.807.886.053 1.738.133 2.498.204l.296.027c.857.08 1.563.14 2.169.153.589.012.922-.028 1.094-.061a2.11 2.11 0 00.004-.091c.008-.374-.065-1-.332-1.98-.533-1.963-1.708-4.875-3.774-9.155a2.345 2.345 0 011.093-3.132zm2.982 14.548l.002-.006-.002.006zm-9.012 4.222l-.001.002.001-.002z" fill="#E337FF"/><path fill-rule="evenodd" clip-rule="evenodd" d="M1163.98 510.681c.92.913.93 2.398.01 3.317-4.44 4.474-7.83 7.498-10.46 9.312-1.31.908-2.54 1.584-3.69 1.964-1.17.385-2.4.51-3.6.115-2.38-.784-3.36-3.162-3.92-4.87-.32-.966-.59-2.046-.87-3.124l-.09-.385c-.25-.98-.5-1.979-.79-3.008-.66-2.311-1.33-3.332-1.74-3.709a.82.82 0 00-.18-.126.107.107 0 00-.05-.016c-.01-.002-.13-.018-.41.099-.64.266-1.6.994-2.89 2.422-1.24 1.38-2.62 3.215-4.14 5.413-1.64 2.37-3.42 4.077-5.44 4.664-2.31.669-4.25-.272-5.58-1.706-1.24-1.343-2.09-3.225-2.65-5.124-.58-1.943-.93-4.123-1.06-6.254-.09-1.734-.48-2.792-.86-3.359-.33-.481-.65-.62-1.04-.635-.5-.02-1.38.182-2.66 1.044-1.25.848-2.72 2.231-4.32 4.262a2.353 2.353 0 01-3.3.39 2.354 2.354 0 01-.39-3.294c1.81-2.285 3.62-4.048 5.38-5.243 1.75-1.18 3.62-1.92 5.48-1.846 1.98.078 3.62 1.066 4.72 2.675 1.04 1.525 1.55 3.523 1.68 5.741.1 1.822.4 3.635.86 5.179.47 1.588 1.06 2.689 1.6 3.277.46.495.66.437.82.389l.01-.001c.44-.13 1.45-.737 2.89-2.824 1.56-2.259 3.07-4.287 4.52-5.891 1.4-1.557 2.94-2.935 4.58-3.614.86-.355 1.83-.553 2.85-.41 1.04.145 1.95.617 2.72 1.303 1.42 1.287 2.38 3.376 3.11 5.904.31 1.109.58 2.186.83 3.159l.09.38c.28 1.094.52 2.019.78 2.804.53 1.621.91 1.862.93 1.879.05.008.24.025.66-.116.56-.184 1.37-.59 2.5-1.368 2.25-1.558 5.39-4.325 9.8-8.759a2.337 2.337 0 013.31-.01zm-16.28 10.251l.01.001-.01-.001zM163.914 4.647c4.985-.14 8.18 2.747 9.302 6.08 1.085 3.223.257 7.182-3.163 8.711-2.449 1.096-5.323.396-7.25-1.202-2.437-2.021-3.004-5.093-1.429-7.247 1.496-2.045 4.588-2.347 6.524-.855.406.313.752.681 1.027 1.085.258.38.525.893.485 1.473-.049.723-.527 1.16-.966 1.364-.382.177-.8.22-1.108.23-.308.01-.623-.01-.906-.038a1.17 1.17 0 01-1.008.068 8.572 8.572 0 01-.774-.334c-.036-.02-.143-.077-.25-.168a1.178 1.178 0 01-.197-1.609c.247-.335.582-.424.653-.443.117-.03.215-.037.26-.04.096-.004.18.002.22.006.128.011.32.042.487.069a16.212 16.212 0 00.464.07c-.969-.589-2.393-.347-3.018.507-.687.94-.667 2.646 1.033 4.057 1.383 1.147 3.319 1.527 4.795.866 1.942-.868 2.744-3.308 1.898-5.822-.81-2.404-3.109-4.593-7.013-4.484-4.567.129-7.37 3.725-7.367 7.74.004 3.924 2.762 8.41 9.898 9.864a1.172 1.172 0 11-.468 2.298c-8.073-1.644-11.771-6.971-11.775-12.16-.005-5.1 3.632-9.917 9.646-10.086zm0 0l.033 1.172-.033-1.172z" fill="#4AA8FF"/><path d="M992.443 376.939a3.372 3.372 0 11-6.743 0 3.372 3.372 0 016.743 0z" fill="#FF007E"/><path fill-rule="evenodd" clip-rule="evenodd" d="M989.071 374.157a2.786 2.786 0 100 5.571 2.786 2.786 0 000-5.571zm-3.958 2.786a3.959 3.959 0 117.918 0 3.959 3.959 0 01-7.918 0z" fill="#FF007E"/><path fill-rule="evenodd" clip-rule="evenodd" d="M989.071 367.158c-5.404 0-9.785 4.381-9.785 9.786 0 5.404 4.381 9.785 9.785 9.785 5.405 0 9.786-4.381 9.786-9.785a9.786 9.786 0 00-9.786-9.786zm-13.303 9.786c0-7.348 5.956-13.304 13.303-13.304 7.348 0 13.299 5.956 13.299 13.304 0 7.347-5.951 13.303-13.299 13.303-7.347 0-13.303-5.956-13.303-13.303z" fill="#FF007E"/><path fill-rule="evenodd" clip-rule="evenodd" d="M754.119 167.536l-.952-2.21c-1.244-2.886 1.307-5.965 4.374-5.279l2.348.525 1.808-1.589c2.36-2.075 6.077-.6 6.372 2.528l.227 2.396 2.069 1.228c2.703 1.604 2.449 5.595-.435 6.842l-2.209.956-.528 2.348c-.69 3.066-4.564 4.057-6.642 1.7l-1.591-1.805-2.397.223c-3.128.291-5.269-3.087-3.669-5.792l1.225-2.071zm1.141 3.471a1.1 1.1 0 001.048 1.655l3.232-.301a1.1 1.1 0 01.927.367l2.146 2.435a1.1 1.1 0 001.898-.485l.712-3.167c.077-.343.314-.628.636-.768l2.979-1.289a1.099 1.099 0 00.125-1.954l-2.792-1.657a1.098 1.098 0 01-.533-.842l-.305-3.231a1.1 1.1 0 00-1.821-.723l-2.438 2.143a1.1 1.1 0 01-.966.248l-3.167-.709a1.1 1.1 0 00-1.25 1.509l1.285 2.98a1.1 1.1 0 01-.063.995l-1.653 2.794z" fill="#4AA8FF"/></g></svg>