<svg version="1.2" xmlns="http://www.w3.org/2000/svg" viewBox="0 0 776 805" width="776" height="805"><defs><linearGradient id="P" gradientUnits="userSpaceOnUse"/><linearGradient id="g1" x1="55.7" y1="619.9" x2="55.7" y2="251" href="#P"><stop stop-color="#fef8d6" stop-opacity=".6"/><stop offset="1" stop-color="#fef8d6" stop-opacity="0"/></linearGradient><linearGradient id="g2" x1="114.5" y1="614.4" x2="114.5" y2="313" href="#P"><stop stop-color="#fef8d6" stop-opacity=".6"/><stop offset="1" stop-color="#fef8d6" stop-opacity="0"/></linearGradient><linearGradient id="g3" x1="191.7" y1="607.2" x2="191.7" y2="392.1" href="#P"><stop stop-color="#fef8d6" stop-opacity=".6"/><stop offset="1" stop-color="#fef8d6" stop-opacity="0"/></linearGradient><linearGradient id="g4" x1="484.4" y1="120.2" x2="449.2" y2="169.8" href="#P"><stop offset=".1" stop-color="#c22654" stop-opacity=".9"/><stop offset="1" stop-color="#c22654" stop-opacity="0"/></linearGradient><linearGradient id="g5" x1="423.9" y1="75.1" x2="427.9" y2="143.2" href="#P"><stop offset=".1" stop-color="#c22654" stop-opacity=".9"/><stop offset="1" stop-color="#c22654" stop-opacity="0"/></linearGradient></defs><style>tspan{white-space:pre}.a{fill:#53ae93}.b{fill:#61c1a1}.c{fill:#6bcaac}.d{fill:#428e71}.e{fill:#de4f68}.f{fill:#9e2b46}.g{fill:url(#g1)}.h{fill:url(#g2)}.i{fill:url(#g3)}.j{fill:#b2354e}.k{fill:#e55a77}.l{fill:url(#g4)}.m{fill:url(#g5)}.n{fill:#fff9de}</style><path class="a" d="m388.4 739.3l-174.5 32.7v-215.3l174.5-32.7z"/><path class="b" d="m562.4 772l-174.5-32.7v-215.3l174.5 32.7z"/><path class="c" d="m388.1 804.7l-174.5-32.7v-215.3l174.5 32.7z"/><path class="d" d="m562.1 772l-174.5 32.7v-215.3l174.5-32.7z"/><path class="e" d="m315.8 791.2l-47.5-9v-215.3l47.5 9z"/><path class="f" d="m504.2 782.8l-47.6 9v-215.3l47.6-8.9z"/><path class="g" d="m213.1 556.7l-153.4-336.2h701.8l-199.9 336.2-174.5 32.7z"/><path class="h" d="m243.8 562.7l-125.3-274.6h573.2l-163.3 274.6-142.5 26.7z"/><path class="i" d="m285.1 570.3l-89.4-196h409.2l-116.6 196-101.7 19.1z"/><path class="c" d="m405.5 223.5l-15.9 53.2-161.9-94.2 19.7-46.6z"/><path class="d" d="m588.6 245.1l-14.2 49.3-184.8-17.7 15.9-53.2z"/><path class="a" d="m423.9 159.8l164.7 85.3-183.1-21.6-158.1-87.6z"/><path class="j" d="m303 166.9l186.9 26 39 21.3-175.1-19.2z"/><path class="e" d="m353.8 195l-23.4 47.2-49.6-28.9 22.2-46.4"/><path class="j" d="m519.2 237l-60.2-7.8-144.6-84.2 47.3 6.7z"/><path class="f" d="m604.6 201.4c-17.7 9.8-103 37.6-170.1 4 0 0 133.8-49.5 171.1-10.1 1.7 1.8 1.2 4.9-1 6.1z"/><path class="k" d="m443.9 144.2c45-42.5 100.9-45.3 122.3-44.6 5.4 0.2 10.1 3.7 11.8 8.8l28.3 88.1c-31.1-37.8-171.8 8.9-171.8 8.9l-20.9-11.2 18.3-34.3c3.1-5.9 7.2-11.2 12-15.7z"/><path class="f" d="m274.8 53.4c54.2 0.2 113.6 132.7 113.6 132.7-70.5-25.8-112.2-108.1-117.3-127.7-0.7-2.5 1.2-5 3.7-5z"/><path class="k" d="m420 155.4l-12.3 37.2-19.3-6.5c0 0-66.3-135.7-114.9-132.3l83.1-40c4.9-2.3 10.7-1.3 14.5 2.5 15.5 15.4 52.8 59.1 51.9 122.7-0.1 5.6-1.2 11.1-3 16.4z"/><path class="e" d="m578 108.4c0 0-64.9 71.5-143.5 97l-16.5-17.8 154.5-86.1c0 0 3.5 0.7 5.5 6.9z"/><path class="e" d="m364.2 13.2l49.7 169.8-24.2 1.1c-38.1-73.3-34.2-169.8-34.2-169.8 5.7-3 8.7-1.1 8.7-1.1z"/><path class="f" d="m519.2 237l-14.3 50.7-60.8-5.8 14.9-52.7z"/><path class="f" d="m585.4 95.8c-23 23-113.7 95.5-156.4 91.7 0 0 99.6-95.3 155.6-97.5 3.4-0.2 3.8 2.8 0.8 5.8z"/><path class="e" d="m439.8 147.2c26.7-39.6 63.2-69.9 80.3-83.1 4.6-3.5 9.1-5.2 11.3-4l54.7 30.2c-49.9-1.2-157.1 97.2-157.1 97.2l-9.3-1.3 12.7-26.2c2.1-4.4 4.6-8.7 7.4-12.8z"/><path class="l" d="m464.7 141.1c0 0-16.9 17.9-17.7 23.1l-3.1-2.1q0 0.1 0 0.1l-2.8-1.9-7.1-5c0 0 16.7-25.5 32.4-41.8 0 0-19.5 23-20.7 36.8 0 0 18.3-19.7 24.3-22.7 0 0-16.1 17.6-23 28.3 9.2-11.5 17.7-14.8 17.7-14.8z"/><path class="f" d="m368.9 1.9c37 42.1 36.8 179.9 36.8 179.9-32.2-28.3-42.4-143.9-41.6-176.4 0.1-4.3 2.5-6.1 4.8-3.5z"/><path class="e" d="m423.3 160.4l-10.3 27.2-7.3-5.8c0 0-2.7-145.5-38-180.7l59.6 18.7c2.3 0.8 4.2 5.2 4.8 11 2.3 21.4 5.6 68.8-4.7 115.4-1 4.9-2.4 9.7-4.1 14.2z"/><path class="m" d="m409.2 152.4c0 0 1.9-54.8-1.1-71.9 0 0 9 39.8 9 60.9l1.7-23.8c0 0 8.9 27.2 3.9 33.2-4.9 6.1-13.5 1.6-13.5 1.6z"/><path class="j" d="m389.8 187.6l-0.9-19.1c-0.7-12.6 12.2-21.6 23.8-16.6l30 12.6c11.7 5 14.1 20.6 4.5 28.9l-13.7 11.7z"/><path class="f" d="m400.1 191.8c0 0-10.5-12.2-6.7-25.5 0 0 3.8 24.3 14.1 28.4 0 0-6.4-22.2 2.5-29.6 0 0 0.4 21.7 3.5 26.3 0 0 9 0.4 14.4-4.4 0 0 0.2 6.1-4.4 7.7 0 0 11.5 4.2 21.3-7.7 0 0-3 11.3-21.3 14.1z"/><path class="n" d="m614 303.6c2-0.3 3.9 1.1 4.2 3.2 0.2 1-0.1 2-0.7 2.8-0.5 0.8-1.4 1.3-2.4 1.5l-4.2 0.6 0.7 4.2c0.1 1-0.1 2-0.7 2.8-0.6 0.8-1.4 1.3-2.5 1.5-2 0.3-3.9-1.1-4.2-3.2l-0.6-4.1-4.2 0.6c-2 0.3-3.9-1.1-4.3-3.2-0.3-2 1.1-3.9 3.2-4.2l4.1-0.7-0.6-4.2c-0.3-2 1.1-3.9 3.1-4.2 2.1-0.4 4 1 4.3 3.1l0.6 4.2z"/><path class="n" d="m725.9 256c2.5-0.4 4.7 1.3 5.1 3.7 0.2 1.3-0.1 2.5-0.8 3.4-0.7 0.9-1.7 1.6-2.9 1.8l-5 0.7 0.8 5c0.2 1.2-0.2 2.4-0.8 3.3-0.7 1-1.7 1.6-3 1.8-2.4 0.4-4.7-1.3-5-3.8l-0.8-4.9-4.9 0.7c-2.5 0.4-4.7-1.3-5.1-3.7-0.4-2.5 1.3-4.8 3.7-5.2l5-0.7-0.8-5c-0.3-2.4 1.3-4.7 3.8-5.1 2.4-0.4 4.7 1.3 5 3.8l0.8 4.9z"/><path class="n" d="m658 250.5c1.6-0.2 3.1 0.9 3.4 2.5 0.1 0.8-0.1 1.6-0.6 2.2-0.4 0.6-1.1 1.1-1.9 1.2l-3.2 0.5 0.5 3.2c0.1 0.8-0.1 1.6-0.6 2.2-0.4 0.6-1.1 1.1-1.9 1.2-1.6 0.2-3.1-0.9-3.3-2.5l-0.5-3.2-3.2 0.5c-1.6 0.2-3.1-0.9-3.4-2.5-0.2-1.6 0.9-3.1 2.5-3.4l3.2-0.5-0.5-3.2c-0.2-1.6 0.9-3.1 2.5-3.4 1.6-0.2 3.1 0.9 3.3 2.5l0.5 3.2z"/><path class="n" d="m699.8 339.9c1.6 0.7 2.3 2.5 1.7 4.1-0.4 0.9-1 1.5-1.8 1.8-0.7 0.3-1.6 0.3-2.4 0l-3.2-1.4-1.4 3.3c-0.3 0.8-1 1.4-1.7 1.8-0.8 0.3-1.6 0.3-2.4 0-1.7-0.7-2.4-2.6-1.7-4.2l1.3-3.3-3.3-1.3c-1.6-0.7-2.3-2.5-1.7-4.1 0.7-1.7 2.6-2.4 4.2-1.8l3.3 1.4 1.3-3.3c0.7-1.7 2.5-2.4 4.1-1.8 1.7 0.7 2.4 2.5 1.7 4.2l-1.3 3.3z"/><path class="n" d="m628.4 527c2.1-0.2 3.8 1.4 4 3.5 0.1 1-0.3 2-0.9 2.7-0.6 0.7-1.6 1.2-2.6 1.3l-4.2 0.3 0.3 4.2c0.1 1-0.3 2-0.9 2.7-0.6 0.7-1.5 1.2-2.5 1.3-2.1 0.2-3.9-1.4-4-3.5l-0.3-4.2-4.2 0.3c-2.1 0.2-3.9-1.4-4-3.5-0.1-2 1.4-3.8 3.5-4l4.2-0.3-0.3-4.2c-0.2-2.1 1.4-3.9 3.4-4 2.1-0.2 3.9 1.4 4 3.5l0.3 4.2z"/><path class="n" d="m770.3 473c2.5 0.1 4.4 2.2 4.2 4.7 0 1.2-0.6 2.3-1.4 3.1-0.9 0.8-2 1.2-3.3 1.1l-5-0.2-0.2 5c-0.1 1.2-0.7 2.3-1.5 3.1-0.9 0.8-2 1.2-3.2 1.1-2.5-0.1-4.4-2.2-4.2-4.7l0.2-5-4.9-0.3c-2.5-0.1-4.4-2.2-4.2-4.7 0.1-2.5 2.2-4.4 4.7-4.2l5 0.2 0.2-5c0.2-2.5 2.3-4.4 4.7-4.2 2.5 0.1 4.4 2.2 4.2 4.7l-0.2 5z"/><path class="n" d="m691.4 498.9c1.6 0 3 1.2 3.1 2.8 0 0.9-0.3 1.6-0.8 2.2-0.5 0.5-1.2 0.9-2 0.9l-3.3 0.2 0.1 3.3c0.1 0.8-0.2 1.5-0.7 2.1-0.5 0.6-1.2 0.9-2 1-1.6 0-3-1.2-3.1-2.8l-0.1-3.3-3.3 0.1c-1.6 0.1-3-1.1-3.1-2.8-0.1-1.6 1.2-3 2.8-3.1l3.3-0.1-0.2-3.3c0-1.6 1.2-3 2.8-3.1 1.6-0.1 3 1.2 3.1 2.8l0.1 3.3z"/><path class="n" d="m751.4 396.9c1.6 0 3 1.2 3.1 2.8 0 0.9-0.3 1.6-0.8 2.2-0.5 0.5-1.2 0.9-2 0.9l-3.3 0.2 0.1 3.3c0.1 0.8-0.2 1.5-0.7 2.1-0.5 0.6-1.2 0.9-2 1-1.6 0-3-1.2-3.1-2.8l-0.1-3.3-3.3 0.1c-1.6 0.1-3-1.1-3.1-2.8-0.1-1.6 1.2-3 2.8-3.1l3.3-0.1-0.2-3.3c0-1.6 1.2-3 2.8-3.1 1.6-0.1 3 1.2 3.1 2.8l0.1 3.3z"/><path class="n" d="m673.6 587.2c1.6 0.5 2.6 2.3 2.1 3.9-0.3 0.9-0.9 1.5-1.6 1.9-0.7 0.4-1.5 0.5-2.4 0.3l-3.4-1.1-1 3.4c-0.3 0.9-0.8 1.5-1.6 1.9-0.7 0.4-1.5 0.5-2.4 0.3-1.6-0.5-2.6-2.3-2-4l1-3.4-3.4-1c-1.7-0.5-2.6-2.3-2.1-4 0.5-1.7 2.3-2.6 4-2.1l3.4 1 1-3.4c0.5-1.7 2.3-2.6 3.9-2.1 1.7 0.5 2.7 2.3 2.1 4l-1 3.4z"/><path class="k" d="m619.6 666.1c5.1 0 9.2 4.1 9.2 9.2 0 5-4.1 9.1-9.2 9.1-5 0-9.1-4.1-9.1-9.1 0-5.1 4.1-9.2 9.1-9.2z"/><path class="k" d="m745.3 585.8c0 3.9-3.2 7.1-7.1 7.1-4 0-7.1-3.2-7.1-7.1 0-3.9 3.1-7.1 7.1-7.1 3.9 0 7.1 3.2 7.1 7.1z"/><path class="k" d="m705.1 448.4c2.8 0 5.1 2.3 5.1 5.1 0 2.8-2.3 5-5.1 5-2.8 0-5.1-2.2-5.1-5 0-2.8 2.3-5.1 5.1-5.1z"/><path class="k" d="m606.7 661.6c0 2.2-1.8 4-4 4-2.2 0-4-1.8-4-4 0-2.2 1.8-4 4-4 2.2 0 4 1.8 4 4z"/><path class="k" d="m636.5 183.5c0 1.2-0.9 2.1-2 2.1-1.2 0-2.1-0.9-2.1-2.1 0-1.1 0.9-2 2.1-2 1.1 0 2 0.9 2 2z"/><path class="k" d="m670.7 99.8c0.9 0 1.7 0.7 1.7 1.6 0 0.9-0.8 1.7-1.7 1.7-0.9 0-1.7-0.8-1.7-1.7 0-0.9 0.8-1.6 1.7-1.6z"/><path class="k" d="m613.7 77.4c2.5 0 4.6 2 4.6 4.6 0 2.5-2.1 4.5-4.6 4.5-2.6 0-4.6-2-4.6-4.5 0-2.6 2-4.6 4.6-4.6z"/><path class="k" d="m775.4 292.2c0 3-2.5 5.5-5.6 5.5-3 0-5.5-2.5-5.5-5.5 0-3.1 2.5-5.6 5.5-5.6 3.1 0 5.6 2.5 5.6 5.6z"/><path class="k" d="m772.6 308.6c1.5 0 2.8 1.2 2.8 2.8 0 1.5-1.3 2.8-2.8 2.8-1.5 0-2.8-1.3-2.8-2.8 0-1.6 1.3-2.8 2.8-2.8z"/><path class="n" d="m166.2 304.3l0.6-4.2c0.3-2.1 2.2-3.5 4.3-3.1 2 0.3 3.4 2.2 3.1 4.2l-0.6 4.2 4.1 0.7c2.1 0.3 3.5 2.2 3.2 4.2-0.4 2.1-2.3 3.5-4.3 3.2l-4.2-0.6-0.6 4.1c-0.3 2.1-2.2 3.5-4.2 3.2-1.1-0.2-1.9-0.7-2.5-1.5-0.6-0.8-0.8-1.8-0.7-2.8l0.7-4.2-4.2-0.6c-1-0.2-1.9-0.7-2.4-1.5-0.6-0.8-0.9-1.8-0.7-2.8 0.3-2.1 2.2-3.5 4.2-3.2z"/><path class="n" d="m55 256.7l0.8-4.9c0.3-2.5 2.6-4.2 5-3.8 2.5 0.4 4.1 2.7 3.8 5.1l-0.8 5 5 0.7c2.4 0.4 4.1 2.7 3.7 5.2-0.4 2.4-2.6 4.1-5.1 3.7l-4.9-0.7-0.8 4.9c-0.3 2.5-2.6 4.2-5 3.8-1.3-0.2-2.3-0.8-3-1.8-0.6-0.9-1-2.1-0.8-3.3l0.8-5-5-0.7c-1.2-0.2-2.2-0.9-2.9-1.8-0.7-0.9-1-2.1-0.8-3.4 0.4-2.4 2.6-4.1 5.1-3.7z"/><path class="n" d="m121.2 251l0.5-3.2c0.2-1.6 1.7-2.7 3.3-2.5 1.6 0.3 2.7 1.8 2.5 3.4l-0.5 3.2 3.2 0.5c1.6 0.3 2.7 1.8 2.5 3.4-0.3 1.6-1.8 2.7-3.4 2.5l-3.2-0.5-0.5 3.2c-0.2 1.6-1.7 2.7-3.3 2.5-0.8-0.1-1.5-0.6-1.9-1.2-0.5-0.6-0.7-1.4-0.6-2.2l0.5-3.2-3.2-0.5c-0.8-0.1-1.5-0.6-1.9-1.2-0.5-0.6-0.7-1.4-0.6-2.2 0.3-1.6 1.8-2.7 3.4-2.5z"/><path class="n" d="m79.5 338.6l-1.3-3.3c-0.7-1.7 0-3.5 1.7-4.2 1.6-0.6 3.4 0.1 4.1 1.8l1.3 3.3 3.3-1.4c1.6-0.6 3.5 0.1 4.2 1.8 0.6 1.6-0.1 3.4-1.7 4.1l-3.3 1.3 1.3 3.3c0.7 1.6 0 3.5-1.7 4.2-0.8 0.3-1.6 0.3-2.4 0-0.7-0.4-1.4-1-1.7-1.8l-1.4-3.3-3.2 1.4c-0.8 0.3-1.7 0.3-2.4 0-0.8-0.3-1.4-0.9-1.8-1.8-0.6-1.6 0.1-3.4 1.7-4.1z"/><path class="n" d="m151.8 527.3l0.3-4.2c0.1-2.1 1.9-3.7 4-3.5 2 0.1 3.6 1.9 3.4 4l-0.3 4.2 4.2 0.3c2.1 0.2 3.6 2 3.5 4-0.1 2.1-1.9 3.7-4 3.5l-4.2-0.3-0.3 4.2c-0.1 2.1-1.9 3.7-4 3.5-1-0.1-1.9-0.6-2.5-1.3-0.6-0.7-1-1.7-0.9-2.7l0.3-4.2-4.2-0.3c-1-0.1-2-0.6-2.6-1.3-0.6-0.7-1-1.7-0.9-2.7 0.2-2.1 1.9-3.7 4-3.5z"/><path class="n" d="m10.6 472.7l-0.2-5c-0.2-2.5 1.7-4.6 4.2-4.7 2.4-0.2 4.5 1.7 4.7 4.2l0.2 5 5-0.2c2.5-0.2 4.6 1.7 4.7 4.2 0.2 2.5-1.7 4.6-4.2 4.7l-4.9 0.3 0.2 5c0.2 2.5-1.7 4.6-4.2 4.7-1.2 0.1-2.3-0.3-3.2-1.1-0.8-0.8-1.4-1.9-1.5-3.1l-0.2-5-5 0.2c-1.3 0.1-2.4-0.3-3.3-1.1-0.8-0.8-1.4-1.9-1.4-3.1-0.2-2.5 1.7-4.6 4.2-4.7z"/><path class="n" d="m87.9 499.1l0.1-3.3c0.1-1.6 1.5-2.9 3.1-2.8 1.6 0.1 2.8 1.5 2.8 3.1l-0.2 3.3 3.3 0.1c1.6 0.1 2.9 1.5 2.8 3.1-0.1 1.7-1.5 2.9-3.1 2.8l-3.3-0.1-0.1 3.3c-0.1 1.6-1.5 2.8-3.1 2.8-0.8-0.1-1.5-0.4-2-1-0.5-0.6-0.8-1.3-0.7-2.1l0.1-3.3-3.3-0.2c-0.8 0-1.5-0.4-2-0.9-0.5-0.6-0.8-1.3-0.8-2.2 0.1-1.6 1.5-2.8 3.1-2.8z"/><path class="n" d="m27.9 397.1l0.1-3.3c0.1-1.6 1.5-2.9 3.1-2.8 1.6 0.1 2.8 1.5 2.8 3.1l-0.2 3.3 3.3 0.1c1.6 0.1 2.9 1.5 2.8 3.1-0.1 1.7-1.5 2.9-3.1 2.8l-3.3-0.1-0.1 3.3c-0.1 1.6-1.5 2.8-3.1 2.8-0.8-0.1-1.5-0.4-2-1-0.5-0.6-0.8-1.3-0.7-2.1l0.1-3.3-3.3-0.2c-0.8 0-1.5-0.4-2-0.9-0.5-0.6-0.8-1.3-0.8-2.2 0.1-1.6 1.5-2.8 3.1-2.8z"/><path class="n" d="m105.8 586.2l-1-3.4c-0.6-1.7 0.4-3.5 2.1-4 1.6-0.5 3.4 0.4 3.9 2.1l1 3.4 3.4-1c1.7-0.5 3.5 0.4 4 2.1 0.5 1.7-0.4 3.5-2.1 4l-3.4 1 1 3.4c0.6 1.7-0.4 3.5-2 4-0.9 0.2-1.7 0.1-2.4-0.3-0.8-0.4-1.3-1-1.6-1.9l-1-3.4-3.4 1.1c-0.9 0.2-1.7 0.1-2.4-0.3-0.7-0.4-1.3-1-1.6-1.9-0.5-1.6 0.5-3.4 2.1-3.9z"/><path class="k" d="m165.5 675.3c0 5-4.1 9.1-9.1 9.1-5.1 0-9.2-4.1-9.2-9.1 0-5.1 4.1-9.2 9.2-9.2 5 0 9.1 4.1 9.1 9.2z"/><path class="k" d="m37.8 578.7c4 0 7.1 3.2 7.1 7.1 0 3.9-3.1 7.1-7.1 7.1-3.9 0-7.1-3.2-7.1-7.1 0-3.9 3.2-7.1 7.1-7.1z"/><path class="k" d="m76 453.5c0 2.8-2.3 5-5.1 5-2.8 0-5.1-2.2-5.1-5 0-2.8 2.3-5.1 5.1-5.1 2.8 0 5.1 2.3 5.1 5.1z"/><path class="k" d="m173.3 657.6c2.2 0 4 1.8 4 4 0 2.2-1.8 4-4 4-2.2 0-4-1.8-4-4 0-2.2 1.8-4 4-4z"/><path class="k" d="m141.5 181.5c1.2 0 2.1 0.9 2.1 2 0 1.2-0.9 2.1-2.1 2.1-1.1 0-2-0.9-2-2.1 0-1.1 0.9-2 2-2z"/><path class="k" d="m107 101.4c0 0.9-0.8 1.7-1.7 1.7-0.9 0-1.7-0.8-1.7-1.7 0-0.9 0.8-1.6 1.7-1.6 0.9 0 1.7 0.7 1.7 1.6z"/><path class="k" d="m166.9 82c0 2.5-2 4.5-4.6 4.5-2.5 0-4.6-2-4.6-4.5 0-2.6 2.1-4.6 4.6-4.6 2.6 0 4.6 2 4.6 4.6z"/><path class="k" d="m6.2 286.6c3 0 5.5 2.5 5.5 5.6 0 3-2.5 5.5-5.5 5.5-3.1 0-5.6-2.5-5.6-5.5 0-3.1 2.5-5.6 5.6-5.6z"/><path class="k" d="m6.2 311.4c0 1.5-1.3 2.8-2.8 2.8-1.5 0-2.8-1.3-2.8-2.8 0-1.6 1.3-2.8 2.8-2.8 1.5 0 2.8 1.2 2.8 2.8z"/></svg>